<svg width="20" height="20" viewBox="0 0 20 20" fill="none" xmlns="http://www.w3.org/2000/svg">
<path d="M4.62484 14.6875C5.49984 14.1319 6.36442 13.7118 7.21859 13.4271C8.07275 13.1424 8.99984 13 9.99984 13C10.9998 13 11.9304 13.1424 12.7915 13.4271C13.6526 13.7118 14.5207 14.1319 15.3957 14.6875C16.0068 13.9375 16.4408 13.1806 16.6978 12.4167C16.9547 11.6528 17.0832 10.8472 17.0832 10C17.0832 7.98612 16.4061 6.30209 15.0519 4.94792C13.6978 3.59376 12.0137 2.91667 9.99984 2.91667C7.98595 2.91667 6.30192 3.59376 4.94775 4.94792C3.59359 6.30209 2.9165 7.98612 2.9165 10C2.9165 10.8472 3.04845 11.6528 3.31234 12.4167C3.57623 13.1806 4.01373 13.9375 4.62484 14.6875ZM9.99984 10.625C9.19428 10.625 8.5172 10.3507 7.96859 9.80209C7.41998 9.25348 7.14567 8.57639 7.14567 7.77084C7.14567 6.96528 7.41998 6.2882 7.96859 5.73959C8.5172 5.19098 9.19428 4.91667 9.99984 4.91667C10.8054 4.91667 11.4825 5.19098 12.0311 5.73959C12.5797 6.2882 12.854 6.96528 12.854 7.77084C12.854 8.57639 12.5797 9.25348 12.0311 9.80209C11.4825 10.3507 10.8054 10.625 9.99984 10.625ZM9.99984 18.3333C8.83317 18.3333 7.74289 18.1146 6.729 17.6771C5.71511 17.2396 4.83317 16.6424 4.08317 15.8854C3.33317 15.1285 2.74289 14.2431 2.31234 13.2292C1.88178 12.2153 1.6665 11.1319 1.6665 9.97917C1.6665 8.84028 1.88525 7.76389 2.32275 6.75001C2.76025 5.73612 3.35748 4.85417 4.11442 4.10417C4.87137 3.35417 5.75678 2.76042 6.77067 2.32292C7.78456 1.88542 8.86789 1.66667 10.0207 1.66667C11.1596 1.66667 12.2359 1.88542 13.2498 2.32292C14.2637 2.76042 15.1457 3.35417 15.8957 4.10417C16.6457 4.85417 17.2394 5.73612 17.6769 6.75001C18.1144 7.76389 18.3332 8.84723 18.3332 10C18.3332 11.1389 18.1144 12.2153 17.6769 13.2292C17.2394 14.2431 16.6457 15.1285 15.8957 15.8854C15.1457 16.6424 14.2637 17.2396 13.2498 17.6771C12.2359 18.1146 11.1526 18.3333 9.99984 18.3333Z" fill="white"/>
</svg>
