<svg width="27" height="31" viewBox="0 0 27 31" fill="none" xmlns="http://www.w3.org/2000/svg">
<path d="M20.25 11.8C20.25 9.89044 19.5388 8.05909 18.273 6.70883C17.0071 5.35857 15.2902 4.6 13.5 4.6C11.7098 4.6 9.9929 5.35857 8.72703 6.70883C7.46116 8.05909 6.75 9.89044 6.75 11.8C6.75 20.2 3.375 22.6 3.375 22.6H23.625C23.625 22.6 20.25 20.2 20.25 11.8Z" stroke="white" stroke-width="2" stroke-linecap="round" stroke-linejoin="round"/>
<path d="M15.4472 27.4C15.2494 27.7637 14.9655 28.0656 14.6239 28.2754C14.2824 28.4853 13.8951 28.5957 13.5009 28.5957C13.1068 28.5957 12.7195 28.4853 12.3779 28.2754C12.0364 28.0656 11.7525 27.7637 11.5547 27.4" stroke="white" stroke-width="2" stroke-linecap="round" stroke-linejoin="round"/>
</svg>
