<svg width="25" height="24" viewBox="0 0 25 24" fill="none" xmlns="http://www.w3.org/2000/svg">
<g clip-path="url(#clip0_2079_33311)">
<path fill-rule="evenodd" clip-rule="evenodd" d="M16.1763 6.29986H7.32373C7.05047 6.29986 6.83619 6.52707 6.86093 6.79061L7.9875 18.7906C8.00926 19.0224 8.20995 19.1999 8.4503 19.1999H15.0497C15.29 19.1999 15.4907 19.0224 15.5125 18.7906L16.6391 6.7906C16.6638 6.52708 16.4495 6.29986 16.1763 6.29986ZM7.32373 6.7906C5.95742 6.7906 4.88603 5.63593 5.00973 6.95357L6.1363 18.9536C6.2451 20.1125 7.24855 20.9999 8.4503 20.9999H15.0497C16.2514 20.9999 17.2549 20.1125 17.3637 18.9536L18.4903 6.95357C18.614 5.63593 17.2882 6.29982 15.9219 6.29982L7.32373 6.7906Z" fill="#BE261D"/>
</g>
<path fill-rule="evenodd" clip-rule="evenodd" d="M3.5 6.90004C3.5 6.40298 3.90294 6.00004 4.4 6.00004L19.1 6C19.5971 6 20 6.40294 20 6.9C20 7.39706 19.5971 7.8 19.1 7.8L4.4 7.80004C3.90294 7.80004 3.5 7.39709 3.5 6.90004Z" fill="#BE261D"/>
<path fill-rule="evenodd" clip-rule="evenodd" d="M10.4 10.5C10.8971 10.5 11.3 10.9029 11.3 11.4L11.3 17.1C11.3 17.5971 10.8971 18 10.4 18C9.90299 18 9.50005 17.5971 9.50005 17.1L9.50001 11.4C9.50001 10.9029 9.90296 10.5 10.4 10.5Z" fill="#BE261D"/>
<path fill-rule="evenodd" clip-rule="evenodd" d="M13.4 10.5C13.8971 10.5 14.3 10.9029 14.3 11.4L14.3 17.1C14.3 17.5971 13.8971 18 13.4 18C12.903 18 12.5 17.5971 12.5 17.1L12.5 11.4C12.5 10.9029 12.903 10.5 13.4 10.5Z" fill="#BE261D"/>
<path fill-rule="evenodd" clip-rule="evenodd" d="M9.5 4.5H14C14.8284 4.5 15.5 5.17157 15.5 6V7.5H17V6C17 4.34315 15.6569 3 14 3H9.5C7.84315 3 6.5 4.34315 6.5 6V7.5H8V6C8 5.17157 8.67157 4.5 9.5 4.5Z" fill="#BE261D"/>
<defs>
<clipPath id="clip0_2079_33311">
<rect width="13.5" height="13.5" fill="white" transform="translate(5 7.5)"/>
</clipPath>
</defs>
</svg>
