<svg width="25" height="25" viewBox="0 0 25 25" fill="none" xmlns="http://www.w3.org/2000/svg">
<g clip-path="url(#clip0_1_125)">
<path d="M12.5001 25.0001C19.4036 25.0001 25.0001 19.4036 25.0001 12.5001C25.0001 5.5965 19.4036 6.10352e-05 12.5001 6.10352e-05C5.5965 6.10352e-05 6.10352e-05 5.5965 6.10352e-05 12.5001C6.10352e-05 19.4036 5.5965 25.0001 12.5001 25.0001Z" fill="#3C5A9A"/>
<path d="M16.5645 3.83685H13.7954C12.1522 3.83685 10.3244 4.52798 10.3244 6.90994C10.3324 7.73991 10.3244 8.53477 10.3244 9.42934H8.4234V12.4544H10.3832V21.1631H13.9846V12.397H16.3616L16.5766 9.42085H13.9225C13.9225 9.42085 13.9285 8.09695 13.9225 7.71249C13.9225 6.77119 14.902 6.8251 14.9609 6.8251C15.427 6.8251 16.3332 6.82645 16.5658 6.8251V3.83685H16.5645Z" fill="white"/>
</g>
<defs>
<clipPath id="clip0_1_125">
<rect width="25" height="25" fill="white"/>
</clipPath>
</defs>
</svg>
