<svg width="29" height="29" viewBox="0 0 29 29" fill="none" xmlns="http://www.w3.org/2000/svg">
<path d="M2.41675 20.5416V3.68538C2.41675 3.40343 2.54765 3.12149 2.80946 2.83954C3.07126 2.5576 3.34314 2.41663 3.62508 2.41663H19.3032C19.6053 2.41663 19.8872 2.55256 20.149 2.82444C20.4108 3.09631 20.5417 3.38329 20.5417 3.68538V14.4395C20.5417 14.7215 20.4108 15.0034 20.149 15.2854C19.8872 15.5673 19.6053 15.7083 19.3032 15.7083H7.25008L2.41675 20.5416ZM8.48862 21.75C8.20668 21.75 7.92977 21.609 7.65789 21.327C7.38602 21.0451 7.25008 20.7632 7.25008 20.4812V17.5208H22.3542V7.24996H25.3751C25.657 7.24996 25.9289 7.39093 26.1907 7.67288C26.4525 7.95482 26.5834 8.24683 26.5834 8.54892V26.5531L21.7803 21.75H8.48862ZM18.7292 4.22913H4.22925V16.1614L6.49487 13.8958H18.7292V4.22913ZM4.22925 4.22913V16.1614V4.22913Z" fill="white"/>
</svg>
