<svg width="24" height="24" viewBox="0 0 24 24" fill="none" xmlns="http://www.w3.org/2000/svg">
<path d="M9.36958 3.89759C7.28158 4.61279 5.50078 6.17759 4.51198 8.15039C4.16638 8.832 3.91678 9.5568 3.76798 10.3056C3.38878 12.168 3.65278 14.1504 4.51198 15.8496C5.06878 16.9584 5.87038 17.9424 6.83998 18.7104C7.75678 19.44 8.82238 19.9776 9.95518 20.28C11.3808 20.664 12.9024 20.6544 14.3424 20.328C15.6432 20.0304 16.872 19.4064 17.8512 18.504C18.888 17.5488 19.6272 16.296 20.0208 14.9472C20.448 13.4736 20.5056 11.904 20.2368 10.3968C17.5488 10.3968 14.8608 10.3968 12.168 10.3968C12.168 11.5104 12.168 12.6288 12.168 13.7424C13.7232 13.7424 15.2832 13.7424 16.8384 13.7424C16.656 14.8128 16.0224 15.7872 15.12 16.392C14.5536 16.7712 13.9056 17.0208 13.2336 17.136C12.5568 17.2512 11.8608 17.2656 11.1888 17.1312C10.5024 16.9968 9.84958 16.7088 9.27838 16.3056C8.36638 15.6672 7.67038 14.7264 7.31518 13.6752C6.95038 12.6048 6.94558 11.4096 7.31518 10.3392C7.56958 9.58559 7.99678 8.8848 8.55838 8.3184C9.24958 7.608 10.1472 7.10399 11.1168 6.89759C11.9472 6.71999 12.8208 6.75359 13.632 6.99839C14.3232 7.20959 14.9568 7.58399 15.48 8.08319C16.008 7.55999 16.5312 7.032 17.0592 6.5088C17.3328 6.22559 17.6256 5.95679 17.8944 5.66399C17.0976 4.92479 16.1568 4.32959 15.1344 3.95519C13.3008 3.26879 11.2224 3.25439 9.36958 3.89759Z" fill="white"/>
<path d="M9.36958 3.8976C11.2224 3.2544 13.3008 3.2688 15.144 3.9504C16.1664 4.3248 17.1024 4.92 17.904 5.6592C17.6352 5.9472 17.3472 6.2208 17.0688 6.504C16.5408 7.0272 16.0176 7.5552 15.4896 8.0784C14.9664 7.5792 14.3328 7.2 13.6416 6.9936C12.8304 6.7488 11.9568 6.7152 11.1264 6.8928C10.1568 7.0992 9.25918 7.608 8.56798 8.3136C8.00638 8.88 7.57919 9.5808 7.32478 10.3344C6.38879 9.6096 5.45278 8.88 4.51678 8.1552C5.50078 6.1776 7.28158 4.6128 9.36958 3.8976Z" fill="#E94435"/>
<path d="M3.76798 10.3056C3.91678 9.55679 4.17118 8.83199 4.51198 8.15039C5.44798 8.87519 6.38398 9.60479 7.31998 10.3296C6.95038 11.4 6.95518 12.5952 7.31998 13.6656C6.38398 14.3904 5.44798 15.12 4.51198 15.8448C3.65278 14.1552 3.38878 12.168 3.76798 10.3056Z" fill="#F8BB15"/>
<path d="M12.1728 10.392C14.8608 10.392 17.5488 10.392 20.2416 10.392C20.5104 11.8992 20.4528 13.4688 20.0256 14.9424C19.632 16.2912 18.8928 17.5488 17.856 18.4992C16.9488 17.7936 16.0368 17.088 15.1344 16.3824C16.0368 15.7824 16.6704 14.8032 16.8528 13.7328C15.2976 13.7328 13.7376 13.7328 12.1824 13.7328C12.168 12.624 12.1728 11.5104 12.1728 10.392Z" fill="#547DBE"/>
<path d="M4.51196 15.8496C5.44796 15.1248 6.38396 14.3952 7.31996 13.6704C7.67516 14.7264 8.37116 15.6624 9.28316 16.3008C9.85436 16.704 10.5072 16.9872 11.1936 17.1264C11.8656 17.2608 12.5664 17.2464 13.2384 17.1312C13.9104 17.016 14.5584 16.7664 15.1248 16.3872C16.032 17.0928 16.944 17.7984 17.8464 18.504C16.8672 19.4112 15.6384 20.0304 14.3376 20.328C12.9024 20.6544 11.3808 20.664 9.95036 20.28C8.81756 19.9776 7.75196 19.44 6.83516 18.7104C5.87036 17.9376 5.06876 16.9536 4.51196 15.8496Z" fill="#34A751"/>
</svg>
