<svg width="29" height="29" viewBox="0 0 29 29" fill="none" xmlns="http://www.w3.org/2000/svg">
<path d="M13.5939 24.1667H7.58245C5.81023 24.1667 4.30485 23.5474 3.06631 22.3088C1.82777 21.0703 1.2085 19.5649 1.2085 17.7927C1.2085 16.2219 1.71197 14.8423 2.71891 13.6542C3.72586 12.466 5.00468 11.751 6.55537 11.5094C6.95815 9.55589 7.90468 7.95988 9.39495 6.72134C10.8852 5.4828 12.6071 4.86353 14.5606 4.86353C16.8161 4.86353 18.7193 5.68419 20.27 7.3255C21.8206 8.96682 22.596 10.9354 22.596 13.2312V13.9562C24.046 13.916 25.2745 14.3842 26.2814 15.3609C27.2884 16.3377 27.7918 17.5712 27.7918 19.0614C27.7918 20.451 27.2884 21.6493 26.2814 22.6562C25.2745 23.6632 24.0762 24.1667 22.6866 24.1667H15.4064V14.5604L17.9137 17.0677L19.2127 15.7687L14.5002 11.0562L9.78766 15.7687L11.0866 17.0677L13.5939 14.5604V24.1667Z" fill="white"/>
</svg>
